# xmcd
#
# Track frame offsets: 
#        150
#        18573
#        37971
#        59994
#        75867
#        102990
#        137613
#        160161
#        182034
#        210582
#        237405
#
# Disc length: 3498 seconds
#
# Revision: 0
# Processed by: cddbd v1.5.2PL0 Copyright (c) Steve Scherf et al.
# Submitted via: ExactAudioCopy v0.95a4
#
DISCID=8e0da80b
DTITLE=Charlie Musselwhite - I Ain't Lying
DYEAR=2014
DGENRE=Blues Rock
TTITLE0=Good Blues Tonight
TTITLE1=Done Somebody Wrong
TTITLE2=Long Lean Lanky Mama
TTITLE3=Always Been Your Friend
TTITLE4=If I Should Have Bad Luck
TTITLE5=My Kinda Girl
TTITLE6=Blues, Why Do You Worry Me?
TTITLE7=300 Miles To Go
TTITLE8=Long Leg Woman
TTITLE9=Christo Rendentor
TTITLE10=Good Blues Tonight (Unedited)
EXTD=
EXTT0=
EXTT1=
EXTT2=
EXTT3=
EXTT4=
EXTT5=
EXTT6=
EXTT7=
EXTT8=
EXTT9=
EXTT10=
PLAYORDER=
